<?xml version="1.0" encoding="UTF-8"?>
<!DOCTYPE svg PUBLIC "-//W3C//DTD SVG 1.1//EN" "http://www.w3.org/Graphics/SVG/1.1/DTD/svg11.dtd">
<svg xmlns="http://www.w3.org/2000/svg" version="1.1" width="512px" height="512px" style="shape-rendering:geometricPrecision; text-rendering:geometricPrecision; image-rendering:optimizeQuality; fill-rule:evenodd; clip-rule:evenodd" xmlns:xlink="http://www.w3.org/1999/xlink">
<g><path style="opacity:0.986" fill="#010000" d="M 211.5,7.5 C 248.202,7.03871 284.868,7.53871 321.5,9C 352.724,17.2239 373.224,36.7239 383,67.5C 387.667,82.8333 387.667,98.1667 383,113.5C 376.692,131.427 370.192,149.26 363.5,167C 384.713,170.573 393.88,183.073 391,204.5C 390.144,208.544 388.478,212.211 386,215.5C 374.702,225.644 363.036,235.31 351,244.5C 346.435,259.027 340.602,273.027 333.5,286.5C 358.493,287.333 383.493,287.833 408.5,288C 424.667,292.167 434.833,302.333 439,318.5C 439.167,332.179 439.667,345.846 440.5,359.5C 475.855,375.697 496.688,403.031 503,441.5C 503.667,460.833 503.667,480.167 503,499.5C 502.626,500.416 502.126,501.25 501.5,502C 419.581,503.164 337.581,503.664 255.5,503.5C 174.167,503.333 92.8333,503.167 11.5,503C 10.5838,502.626 9.75044,502.126 9,501.5C 7.3579,481.59 7.02457,461.59 8,441.5C 14.3116,403.031 35.1449,375.697 70.5,359.5C 71.3327,345.846 71.8327,332.179 72,318.5C 76.1667,302.333 86.3333,292.167 102.5,288C 127.507,287.833 152.507,287.333 177.5,286.5C 170.398,273.027 164.565,259.027 160,244.5C 147.964,235.31 136.298,225.644 125,215.5C 118.443,204.584 117.776,193.25 123,181.5C 128.553,173.636 136.053,168.636 145.5,166.5C 137.728,151.289 130.228,135.956 123,120.5C 120.727,111.618 121.394,102.951 125,94.5C 126.802,85.2677 123.969,77.7677 116.5,72C 107.423,68.8633 98.4229,65.53 89.5,62C 85.5,57.6667 85.5,53.3333 89.5,49C 126.995,25.6687 167.662,11.8354 211.5,7.5 Z"/></g>
<g><path style="opacity:1" fill="#966846" d="M 214.5,23.5 C 246.835,23.3334 279.168,23.5 311.5,24C 343.113,29.613 362.28,48.113 369,79.5C 369.752,88.208 369.419,96.8746 368,105.5C 365.197,114.242 362.197,122.908 359,131.5C 357.031,118.922 352.697,107.256 346,96.5C 339.333,86.5 332.667,76.5 326,66.5C 322.498,63.3992 318.665,62.8992 314.5,65C 303.551,75.612 291.218,84.2786 277.5,91C 266.462,94.6173 255.129,96.2839 243.5,96C 230.879,97.8127 219.212,102.146 208.5,109C 190.333,121.167 172.167,133.333 154,145.5C 148.745,135.99 143.745,126.324 139,116.5C 137.769,109.15 138.769,102.15 142,95.5C 143.464,75.4241 134.964,61.4241 116.5,53.5C 139.811,40.2274 164.811,31.3941 191.5,27C 199.304,25.7674 206.971,24.6008 214.5,23.5 Z"/></g>
<g><path style="opacity:1" fill="#f9deb1" d="M 316.5,83.5 C 327.997,96.2261 336.497,110.893 342,127.5C 343.403,140.782 343.903,154.115 343.5,167.5C 318.498,167.333 293.498,167.5 268.5,168C 266.333,168.833 264.833,170.333 264,172.5C 263.501,176.152 263.335,179.818 263.5,183.5C 258.167,183.5 252.833,183.5 247.5,183.5C 247.665,179.818 247.499,176.152 247,172.5C 246.065,169.898 244.232,168.398 241.5,168C 216.836,167.5 192.169,167.333 167.5,167.5C 167.203,163.233 167.536,159.066 168.5,155C 185.672,143.915 202.672,132.581 219.5,121C 232.766,113.212 247.1,109.879 262.5,111C 283.749,107.877 301.749,98.7101 316.5,83.5 Z"/></g>
<g><path style="opacity:1" fill="#edc883" d="M 144.5,183.5 C 146.833,183.5 149.167,183.5 151.5,183.5C 152.594,195.171 153.427,206.838 154,218.5C 146.988,213.819 140.988,208.152 136,201.5C 134.3,193.237 137.133,187.237 144.5,183.5 Z"/></g>
<g><path style="opacity:1" fill="#f8ddb1" d="M 167.5,183.5 C 172.833,183.5 178.167,183.5 183.5,183.5C 183.071,194.245 183.571,204.912 185,215.5C 188.255,223.089 193.755,228.256 201.5,231C 210.5,231.667 219.5,231.667 228.5,231C 243.109,225.631 249.443,215.131 247.5,199.5C 252.833,199.5 258.167,199.5 263.5,199.5C 261.644,214.634 267.644,225.134 281.5,231C 318.853,236.812 334.186,220.978 327.5,183.5C 332.833,183.5 338.167,183.5 343.5,183.5C 342.392,220.269 332.725,254.603 314.5,286.5C 275.167,287.833 235.833,287.833 196.5,286.5C 178.272,254.588 168.605,220.255 167.5,183.5 Z"/></g>
<g><path style="opacity:1" fill="#f0eee9" d="M 199.5,183.5 C 210.167,183.5 220.833,183.5 231.5,183.5C 231.666,192.506 231.5,201.506 231,210.5C 230.167,212.667 228.667,214.167 226.5,215C 219.167,215.667 211.833,215.667 204.5,215C 203.069,214.535 201.903,213.701 201,212.5C 199.552,202.939 199.052,193.273 199.5,183.5 Z"/></g>
<g><path style="opacity:1" fill="#f0eee9" d="M 279.5,183.5 C 290.167,183.5 300.833,183.5 311.5,183.5C 311.666,192.506 311.5,201.506 311,210.5C 310.167,212.667 308.667,214.167 306.5,215C 299.167,215.667 291.833,215.667 284.5,215C 283.069,214.535 281.903,213.701 281,212.5C 279.552,202.939 279.052,193.273 279.5,183.5 Z"/></g>
<g><path style="opacity:1" fill="#eec984" d="M 359.5,183.5 C 368.667,183.503 374,188.003 375.5,197C 375.597,200.638 374.43,203.805 372,206.5C 367,210.5 362,214.5 357,218.5C 357.958,206.878 358.791,195.212 359.5,183.5 Z"/></g>
<g><path style="opacity:1" fill="#d4cdc1" d="M 105.5,303.5 C 205.167,303.333 304.834,303.5 404.5,304C 413.573,306.739 419.74,312.573 423,321.5C 423.5,376.832 423.667,432.166 423.5,487.5C 311.5,487.5 199.5,487.5 87.5,487.5C 87.3333,432.166 87.5,376.832 88,321.5C 91.3531,312.982 97.1865,306.982 105.5,303.5 Z"/></g>
<g><path style="opacity:1" fill="#080504" d="M 200.5,314.5 C 204.981,316.459 208.815,319.459 212,323.5C 212.667,324.5 212.667,325.5 212,326.5C 203.652,334.681 195.486,343.014 187.5,351.5C 195.486,359.986 203.652,368.319 212,376.5C 212.667,377.5 212.667,378.5 212,379.5C 208.953,382.883 205.62,385.883 202,388.5C 190.708,378.209 179.708,367.542 169,356.5C 167,353.167 167,349.833 169,346.5C 179.702,335.965 190.202,325.298 200.5,314.5 Z"/></g>
<g><path style="opacity:1" fill="#080504" d="M 307.5,314.5 C 308.552,314.351 309.552,314.517 310.5,315C 321,325.5 331.5,336 342,346.5C 344,349.833 344,353.167 342,356.5C 331.292,367.542 320.292,378.209 309,388.5C 305.38,385.883 302.047,382.883 299,379.5C 298.333,378.5 298.333,377.5 299,376.5C 307.348,368.319 315.514,359.986 323.5,351.5C 315.514,343.014 307.348,334.681 299,326.5C 298.333,325.5 298.333,324.5 299,323.5C 302.038,320.631 304.871,317.631 307.5,314.5 Z"/></g>
<g><path style="opacity:1" fill="#050302" d="M 272.5,315.5 C 277.335,317.753 281.669,320.753 285.5,324.5C 269.859,345.974 254.026,367.308 238,388.5C 233.703,385.276 229.536,381.943 225.5,378.5C 240.932,357.292 256.599,336.292 272.5,315.5 Z"/></g>
<g><path style="opacity:1" fill="#2c4c82" d="M 69.5,377.5 C 71.4937,413.818 72.1604,450.485 71.5,487.5C 55.5,487.5 39.5,487.5 23.5,487.5C 23.3334,472.83 23.5001,458.163 24,443.5C 29.23,414.471 44.3967,392.471 69.5,377.5 Z"/></g>
<g><path style="opacity:1" fill="#2c4c82" d="M 439.5,377.5 C 465.853,391.721 481.686,413.721 487,443.5C 487.5,458.163 487.667,472.83 487.5,487.5C 471.5,487.5 455.5,487.5 439.5,487.5C 439.5,450.833 439.5,414.167 439.5,377.5 Z"/></g>
<g><path style="opacity:1" fill="#040403" d="M 248.5,399.5 C 274.397,398.568 287.231,410.901 287,436.5C 281.857,456.287 269.024,465.12 248.5,463C 230.146,456.817 221.979,443.983 224,424.5C 227.683,411.651 235.85,403.318 248.5,399.5 Z"/></g>
<g><path style="opacity:1" fill="#e3e0d9" d="M 250.5,415.5 C 266.678,415.168 273.178,422.834 270,438.5C 264.039,447.283 256.206,449.449 246.5,445C 236.083,433.501 237.416,423.667 250.5,415.5 Z"/></g>
</svg>
