<?xml version="1.0" encoding="UTF-8"?>
<!DOCTYPE svg PUBLIC "-//W3C//DTD SVG 1.1//EN" "http://www.w3.org/Graphics/SVG/1.1/DTD/svg11.dtd">
<svg xmlns="http://www.w3.org/2000/svg" version="1.1" width="512px" height="512px" style="shape-rendering:geometricPrecision; text-rendering:geometricPrecision; image-rendering:optimizeQuality; fill-rule:evenodd; clip-rule:evenodd" xmlns:xlink="http://www.w3.org/1999/xlink">
<g><path style="opacity:0.997" fill="#039be5" d="M 232.5,-0.5 C 247.833,-0.5 263.167,-0.5 278.5,-0.5C 368.144,10.3879 435.644,54.7213 481,132.5C 497.695,163.971 507.861,197.304 511.5,232.5C 511.5,247.833 511.5,263.167 511.5,278.5C 500.612,368.144 456.279,435.644 378.5,481C 347.029,497.695 313.696,507.861 278.5,511.5C 263.167,511.5 247.833,511.5 232.5,511.5C 142.856,500.612 75.3562,456.279 30,378.5C 13.3053,347.029 3.1386,313.696 -0.5,278.5C -0.5,263.167 -0.5,247.833 -0.5,232.5C 10.3875,142.857 54.7208,75.3573 132.5,30C 163.971,13.3053 197.304,3.1386 232.5,-0.5 Z"/></g>
<g><path style="opacity:1" fill="#fefefe" d="M 365.5,153.5 C 379.094,153.958 384.261,160.958 381,174.5C 366.764,243.681 351.764,312.681 336,381.5C 330.221,387.164 323.721,387.997 316.5,384C 295.267,367.8 273.767,351.967 252,336.5C 240.529,346.97 229.363,357.803 218.5,369C 215.513,371.082 212.179,372.249 208.5,372.5C 209.963,350.834 211.463,329.167 213,307.5C 253.299,271.536 293.299,235.203 333,198.5C 333.348,196.077 332.182,195.077 329.5,195.5C 326.972,195.763 324.639,196.596 322.5,198C 274.5,228.333 226.5,258.667 178.5,289C 176.833,289.667 175.167,289.667 173.5,289C 153.167,282.667 132.833,276.333 112.5,270C 102.47,266.553 101.137,261.219 108.5,254C 114.333,250.945 120.333,248.278 126.5,246C 206.462,215.629 286.129,184.796 365.5,153.5 Z"/></g>
</svg>
